<?xml version="1.0" encoding="UTF-8" standalone="no"?><!DOCTYPE svg PUBLIC "-//W3C//DTD SVG 1.1//EN" "http://www.w3.org/Graphics/SVG/1.1/DTD/svg11.dtd"><svg width="100%" height="100%" viewBox="0 0 64 64" version="1.1" xmlns="http://www.w3.org/2000/svg" xmlns:xlink="http://www.w3.org/1999/xlink" xml:space="preserve" xmlns:serif="http://www.serif.com/" style="fill-rule:evenodd;clip-rule:evenodd;stroke-linejoin:round;stroke-miterlimit:2;"><rect id="Artboard1" x="0" y="0" width="64" height="64" style="fill-opacity:0;"/><g id="Artboard11" serif:id="Artboard1"><path d="M32,1c17.109,0 31,13.891 31,31c0,17.109 -13.891,31 -31,31c-17.109,0 -31,-13.891 -31,-31c0,-17.109 13.891,-31 31,-31Zm-2.916,51.21c0.913,0.166 1.852,0.255 2.811,0.262l0.21,-0c0.959,-0.007 1.899,-0.096 2.811,-0.262c9.951,-1.418 17.612,-9.982 17.612,-20.321c-0,-11.33 -9.199,-20.528 -20.528,-20.528c-11.329,0 -20.528,9.198 -20.528,20.528c0,10.339 7.661,18.903 17.612,20.321Zm-6.183,-11.11c-0.021,0.253 -0.032,0.509 -0.032,0.768c0,4.564 3.357,8.351 7.735,9.024c0.462,0.034 0.927,0.051 1.396,0.051c0.469,-0 0.934,-0.017 1.396,-0.051c4.378,-0.673 7.735,-4.46 7.735,-9.024c-0,-0.259 -0.011,-0.515 -0.032,-0.768c-2.597,1.761 -5.729,2.79 -9.099,2.79c-3.37,0 -6.502,-1.029 -9.099,-2.79Zm-4.824,-5.093c-0.102,-0.175 -0.31,-0.26 -0.506,-0.206c-0.196,0.053 -0.332,0.231 -0.332,0.434c-0.002,0 -0.002,0 -0.002,0c-0,3.688 1.355,7.062 3.594,9.651c0.206,0.241 0.554,0.302 0.83,0.146c0.275,-0.157 0.401,-0.487 0.3,-0.787c-0.371,-1.058 -0.565,-2.195 -0.565,-3.377c-0,-0.611 0.052,-1.21 0.151,-1.794c-1.368,-1.152 -2.543,-2.526 -3.47,-4.067Zm28.686,0.228c0,-0.204 -0.137,-0.383 -0.334,-0.437c-0.197,-0.053 -0.405,0.032 -0.509,0.208c-0.924,1.542 -2.099,2.916 -3.467,4.068c0.099,0.584 0.151,1.183 0.151,1.794c0,1.182 -0.194,2.319 -0.551,3.382c-0.1,0.293 0.023,0.617 0.293,0.77c0.27,0.153 0.611,0.093 0.812,-0.143c2.25,-2.58 3.605,-5.954 3.605,-9.642c0,0 0,-0 0,-0Zm-5.945,3.257c-2.46,1.837 -5.513,2.925 -8.818,2.925c-3.305,-0 -6.358,-1.088 -8.818,-2.925c1.047,-3.89 4.6,-6.755 8.818,-6.755c-0,-0 0,-0 0,-0c4.218,-0 7.771,2.865 8.818,6.755Zm8.094,-16.384c-0.153,-0.285 -0.495,-0.411 -0.796,-0.294c-0.302,0.118 -0.469,0.441 -0.389,0.754c0.33,1.307 0.51,2.676 0.51,4.085c-0,1.485 -0.2,2.924 -0.574,4.291c0.374,1.368 0.574,2.806 0.574,4.291c-0,1.332 -0.161,2.626 -0.464,3.865c-0.076,0.319 0.096,0.645 0.403,0.76c0.307,0.116 0.652,-0.015 0.805,-0.305c1.322,-2.603 2.073,-5.548 2.073,-8.666c0,-3.166 -0.774,-6.153 -2.142,-8.781Zm-32.63,0.463c0.081,-0.318 -0.088,-0.647 -0.394,-0.766c-0.306,-0.118 -0.652,0.01 -0.808,0.299c-1.36,2.632 -2.134,5.619 -2.134,8.785c-0,3.118 0.751,6.063 2.081,8.662c0.151,0.286 0.491,0.414 0.793,0.3c0.303,-0.114 0.473,-0.435 0.398,-0.749c-0.294,-1.241 -0.455,-2.535 -0.455,-3.867c0,-1.485 0.2,-2.923 0.574,-4.291c-0.374,-1.367 -0.574,-2.806 -0.574,-4.291c0,-1.409 0.18,-2.778 0.519,-4.082Zm25.764,1.85c-1.017,3.004 -3.345,5.406 -6.302,6.523c2.957,1.118 5.285,3.52 6.302,6.523c1.838,-1.708 3.24,-3.877 4.021,-6.323c0.041,-0.13 0.041,-0.269 -0,-0.399c-0.781,-2.446 -2.183,-4.616 -4.021,-6.324Zm-20.092,0c-1.838,1.708 -3.24,3.878 -4.021,6.324c-0.041,0.13 -0.041,0.269 0,0.399c0.781,2.446 2.183,4.615 4.021,6.323c1.017,-3.004 3.345,-5.405 6.302,-6.523c-2.957,-1.117 -5.285,-3.519 -6.302,-6.523Zm18.864,-1.024c-1.047,3.889 -4.6,6.755 -8.818,6.755c0,-0 -0,-0 -0,-0c-4.218,-0 -7.771,-2.866 -8.818,-6.755c2.46,-1.837 5.513,-2.925 8.818,-2.925c3.305,-0 6.358,1.088 8.818,2.925Zm-18.871,-5.758c0.1,-0.294 -0.023,-0.617 -0.293,-0.77c-0.27,-0.153 -0.611,-0.093 -0.812,0.143c-2.25,2.58 -3.605,5.954 -3.605,9.641c-0,0.001 -0,0.001 -0,0.001c-0,0.204 0.137,0.383 0.334,0.436c0.197,0.054 0.405,-0.031 0.509,-0.207c0.924,-1.542 2.099,-2.916 3.467,-4.069c-0.099,-0.583 -0.151,-1.182 -0.151,-1.793c-0,-1.182 0.194,-2.32 0.551,-3.382Zm21.222,-0.636c-0.206,-0.241 -0.554,-0.303 -0.83,-0.146c-0.275,0.156 -0.401,0.486 -0.3,0.787c0.371,1.057 0.565,2.195 0.565,3.377c0,0.611 -0.052,1.21 -0.151,1.793c1.368,1.153 2.543,2.527 3.47,4.067c0.102,0.176 0.31,0.26 0.506,0.207c0.196,-0.053 0.332,-0.231 0.332,-0.434c0.002,-0 0.002,-0 0.002,-0.001c0,-3.687 -1.355,-7.061 -3.594,-9.65Zm-2.07,4.786c0.021,-0.253 0.032,-0.509 0.032,-0.768c-0,-5.039 -4.091,-9.131 -9.131,-9.131c-5.04,0 -9.131,4.092 -9.131,9.131c0,0.259 0.011,0.515 0.032,0.768c2.597,-1.761 5.729,-2.79 9.099,-2.79c3.37,-0 6.502,1.029 9.099,2.79Z" style="fill:#a0a0a0;"/></g></svg>